# xmcd
#
# Track frame offsets:
#	150
#	17390
#	37885
#	61387
#	80130
#	104522
#	123832
#	141532
#	164627
#	182665
#	212080
#
# Disc length: 2892 seconds
#
# Revision: 1
# Processed by: cddbd v1.4PL0 Copyright (c) Steve Scherf et al.
# Submitted via: audiograbber 1.80
#
DISCID=990b4a0b
DTITLE=Robert Earl Keen - Picnic
DYEAR=1900
DGENRE=
TTITLE0=Undone
TTITLE1=Over The Waterfall
TTITLE2=Levelland
TTITLE3=I Wonder Where My Baby Is Tonight
TTITLE4=Oh Rosie
TTITLE5=Runnin' With The Night
TTITLE6=The Coming Home Of The Son And Brother
TTITLE7=Shades Of Gray
TTITLE8=Fourth Of July
TTITLE9=Then Came Lo Mein
TTITLE10=Data Track
EXTD=
EXTT0=
EXTT1=
EXTT2=
EXTT3=
EXTT4=
EXTT5=
EXTT6=
EXTT7=
EXTT8=
EXTT9=with Margo Timmins
EXTT10=
PLAYORDER=
